<mxfile host="app.diagrams.net" agent="Mozilla/5.0 (Windows NT 10.0; Win64; x64) AppleWebKit/537.36 (KHTML, like Gecko) Chrome/137.0.0.0 Safari/537.36 Edg/137.0.0.0" version="27.1.4">
  <diagram name="第 1 页" id="XqW4YtKoJZ4eg3O_WtkF">
    <mxGraphModel dx="923" dy="584" grid="1" gridSize="10" guides="1" tooltips="1" connect="1" arrows="1" fold="1" page="1" pageScale="1" pageWidth="700" pageHeight="1000" math="0" shadow="0">
      <root>
        <mxCell id="0" />
        <mxCell id="1" parent="0" />
        <mxCell id="QgqbaAy0OsrkQTlKKHhq-11" value="" style="endArrow=classic;startArrow=classic;html=1;rounded=0;" edge="1" parent="1">
          <mxGeometry width="50" height="50" relative="1" as="geometry">
            <mxPoint x="60" y="600" as="sourcePoint" />
            <mxPoint x="60" y="360" as="targetPoint" />
          </mxGeometry>
        </mxCell>
        <mxCell id="QgqbaAy0OsrkQTlKKHhq-12" value="2.5&lt;span style=&quot;background-color: light-dark(#ffffff, var(--ge-dark-color, #121212)); color: light-dark(rgb(0, 0, 0), rgb(255, 255, 255));&quot;&gt;m&lt;/span&gt;" style="edgeLabel;html=1;align=center;verticalAlign=middle;resizable=0;points=[];" vertex="1" connectable="0" parent="QgqbaAy0OsrkQTlKKHhq-11">
          <mxGeometry x="0.3474" y="1" relative="1" as="geometry">
            <mxPoint as="offset" />
          </mxGeometry>
        </mxCell>
        <mxCell id="QgqbaAy0OsrkQTlKKHhq-34" value="" style="group" vertex="1" connectable="0" parent="1">
          <mxGeometry x="84.99999999999999" y="340" width="250" height="270" as="geometry" />
        </mxCell>
        <mxCell id="QgqbaAy0OsrkQTlKKHhq-1" value="" style="rounded=0;whiteSpace=wrap;html=1;rotation=90;movable=1;resizable=1;rotatable=1;deletable=1;editable=1;locked=0;connectable=1;" vertex="1" parent="QgqbaAy0OsrkQTlKKHhq-34">
          <mxGeometry x="1.4210854715202004e-14" y="20" width="250" height="250" as="geometry" />
        </mxCell>
        <mxCell id="QgqbaAy0OsrkQTlKKHhq-2" value="桌子" style="rounded=0;whiteSpace=wrap;html=1;movable=1;resizable=1;rotatable=1;deletable=1;editable=1;locked=0;connectable=1;" vertex="1" parent="QgqbaAy0OsrkQTlKKHhq-34">
          <mxGeometry x="35.000000000000014" y="70" width="180" height="50" as="geometry" />
        </mxCell>
        <mxCell id="QgqbaAy0OsrkQTlKKHhq-6" value="" style="endArrow=classic;startArrow=classic;html=1;rounded=0;movable=1;resizable=1;rotatable=1;deletable=1;editable=1;locked=0;connectable=1;" edge="1" parent="QgqbaAy0OsrkQTlKKHhq-34">
          <mxGeometry width="50" height="50" relative="1" as="geometry">
            <mxPoint x="35.000000000000014" y="80" as="sourcePoint" />
            <mxPoint x="215" y="80" as="targetPoint" />
          </mxGeometry>
        </mxCell>
        <mxCell id="QgqbaAy0OsrkQTlKKHhq-7" value="1.8m" style="edgeLabel;html=1;align=center;verticalAlign=middle;resizable=1;points=[];movable=1;rotatable=1;deletable=1;editable=1;locked=0;connectable=1;" vertex="1" connectable="0" parent="QgqbaAy0OsrkQTlKKHhq-6">
          <mxGeometry x="0.1746" y="-1" relative="1" as="geometry">
            <mxPoint x="-16" as="offset" />
          </mxGeometry>
        </mxCell>
        <mxCell id="QgqbaAy0OsrkQTlKKHhq-8" value="" style="endArrow=classic;startArrow=classic;html=1;rounded=0;movable=1;resizable=1;rotatable=1;deletable=1;editable=1;locked=0;connectable=1;" edge="1" parent="QgqbaAy0OsrkQTlKKHhq-34">
          <mxGeometry width="50" height="50" relative="1" as="geometry">
            <mxPoint x="5.000000000000014" as="sourcePoint" />
            <mxPoint x="245" as="targetPoint" />
          </mxGeometry>
        </mxCell>
        <mxCell id="QgqbaAy0OsrkQTlKKHhq-10" value="2.5m" style="edgeLabel;html=1;align=center;verticalAlign=middle;resizable=1;points=[];movable=1;rotatable=1;deletable=1;editable=1;locked=0;connectable=1;" vertex="1" connectable="0" parent="QgqbaAy0OsrkQTlKKHhq-8">
          <mxGeometry x="-0.0229" y="-1" relative="1" as="geometry">
            <mxPoint as="offset" />
          </mxGeometry>
        </mxCell>
        <mxCell id="QgqbaAy0OsrkQTlKKHhq-13" value="" style="endArrow=classic;startArrow=classic;html=1;rounded=0;movable=1;resizable=1;rotatable=1;deletable=1;editable=1;locked=0;connectable=1;" edge="1" parent="QgqbaAy0OsrkQTlKKHhq-34">
          <mxGeometry width="50" height="50" relative="1" as="geometry">
            <mxPoint x="15.000000000000014" y="120" as="sourcePoint" />
            <mxPoint x="15.000000000000014" y="20" as="targetPoint" />
          </mxGeometry>
        </mxCell>
        <mxCell id="QgqbaAy0OsrkQTlKKHhq-15" value="1m" style="edgeLabel;html=1;align=center;verticalAlign=middle;resizable=1;points=[];movable=1;rotatable=1;deletable=1;editable=1;locked=0;connectable=1;" vertex="1" connectable="0" parent="QgqbaAy0OsrkQTlKKHhq-13">
          <mxGeometry x="0.5006" y="2" relative="1" as="geometry">
            <mxPoint as="offset" />
          </mxGeometry>
        </mxCell>
        <mxCell id="QgqbaAy0OsrkQTlKKHhq-16" value="机器" style="whiteSpace=wrap;html=1;rotation=-90;movable=1;resizable=1;rotatable=1;deletable=1;editable=1;locked=0;connectable=1;" vertex="1" parent="QgqbaAy0OsrkQTlKKHhq-34">
          <mxGeometry x="75.00000000000001" y="133" width="100" height="75" as="geometry" />
        </mxCell>
        <mxCell id="QgqbaAy0OsrkQTlKKHhq-17" value="桌子" style="rounded=0;whiteSpace=wrap;html=1;movable=1;resizable=1;rotatable=1;deletable=1;editable=1;locked=0;connectable=1;" vertex="1" parent="QgqbaAy0OsrkQTlKKHhq-34">
          <mxGeometry x="35.000000000000014" y="20" width="180" height="50" as="geometry" />
        </mxCell>
        <mxCell id="QgqbaAy0OsrkQTlKKHhq-19" value="操作区&lt;div&gt;&lt;br&gt;&lt;/div&gt;" style="rounded=0;whiteSpace=wrap;html=1;movable=1;resizable=1;rotatable=1;deletable=1;editable=1;locked=0;connectable=1;" vertex="1" parent="QgqbaAy0OsrkQTlKKHhq-34">
          <mxGeometry x="102.50000000000001" y="220" width="45" height="50" as="geometry" />
        </mxCell>
        <mxCell id="QgqbaAy0OsrkQTlKKHhq-41" value="" style="endArrow=classic;startArrow=classic;html=1;rounded=0;" edge="1" parent="QgqbaAy0OsrkQTlKKHhq-34">
          <mxGeometry width="50" height="50" relative="1" as="geometry">
            <mxPoint x="65.00000000000001" y="210" as="sourcePoint" />
            <mxPoint x="65.00000000000001" y="120" as="targetPoint" />
          </mxGeometry>
        </mxCell>
        <mxCell id="QgqbaAy0OsrkQTlKKHhq-42" value="1m" style="edgeLabel;html=1;align=center;verticalAlign=middle;resizable=0;points=[];" vertex="1" connectable="0" parent="QgqbaAy0OsrkQTlKKHhq-41">
          <mxGeometry x="0.5156" y="1" relative="1" as="geometry">
            <mxPoint as="offset" />
          </mxGeometry>
        </mxCell>
        <mxCell id="QgqbaAy0OsrkQTlKKHhq-35" value="" style="endArrow=classic;startArrow=classic;html=1;rounded=0;" edge="1" parent="1">
          <mxGeometry width="50" height="50" relative="1" as="geometry">
            <mxPoint x="639" y="560" as="sourcePoint" />
            <mxPoint x="639" y="360" as="targetPoint" />
          </mxGeometry>
        </mxCell>
        <mxCell id="QgqbaAy0OsrkQTlKKHhq-36" value="2&lt;span style=&quot;background-color: light-dark(#ffffff, var(--ge-dark-color, #121212)); color: light-dark(rgb(0, 0, 0), rgb(255, 255, 255));&quot;&gt;m&lt;/span&gt;" style="edgeLabel;html=1;align=center;verticalAlign=middle;resizable=0;points=[];" vertex="1" connectable="0" parent="QgqbaAy0OsrkQTlKKHhq-35">
          <mxGeometry x="0.3474" y="1" relative="1" as="geometry">
            <mxPoint as="offset" />
          </mxGeometry>
        </mxCell>
        <mxCell id="QgqbaAy0OsrkQTlKKHhq-20" value="" style="rounded=0;whiteSpace=wrap;html=1;rotation=90;movable=0;resizable=0;rotatable=0;deletable=0;editable=0;locked=1;connectable=0;" vertex="1" parent="1">
          <mxGeometry x="385" y="335.5" width="200" height="250" as="geometry" />
        </mxCell>
        <mxCell id="QgqbaAy0OsrkQTlKKHhq-24" value="" style="endArrow=classic;startArrow=classic;html=1;rounded=0;movable=0;resizable=0;rotatable=0;deletable=0;editable=0;locked=1;connectable=0;" edge="1" parent="1">
          <mxGeometry width="50" height="50" relative="1" as="geometry">
            <mxPoint x="365" y="341" as="sourcePoint" />
            <mxPoint x="605" y="341" as="targetPoint" />
          </mxGeometry>
        </mxCell>
        <mxCell id="QgqbaAy0OsrkQTlKKHhq-25" value="2.5m" style="edgeLabel;html=1;align=center;verticalAlign=middle;resizable=0;points=[];movable=0;rotatable=0;deletable=0;editable=0;locked=1;connectable=0;" vertex="1" connectable="0" parent="QgqbaAy0OsrkQTlKKHhq-24">
          <mxGeometry x="-0.0229" y="-1" relative="1" as="geometry">
            <mxPoint as="offset" />
          </mxGeometry>
        </mxCell>
        <mxCell id="QgqbaAy0OsrkQTlKKHhq-28" value="" style="endArrow=classic;startArrow=classic;html=1;rounded=0;movable=1;resizable=1;rotatable=1;deletable=1;editable=1;locked=0;connectable=1;" edge="1" parent="1">
          <mxGeometry width="50" height="50" relative="1" as="geometry">
            <mxPoint x="375" y="411" as="sourcePoint" />
            <mxPoint x="375" y="361" as="targetPoint" />
          </mxGeometry>
        </mxCell>
        <mxCell id="QgqbaAy0OsrkQTlKKHhq-40" value="0.5m" style="edgeLabel;html=1;align=center;verticalAlign=middle;resizable=0;points=[];" vertex="1" connectable="0" parent="QgqbaAy0OsrkQTlKKHhq-28">
          <mxGeometry x="0.232" y="-1" relative="1" as="geometry">
            <mxPoint as="offset" />
          </mxGeometry>
        </mxCell>
        <mxCell id="QgqbaAy0OsrkQTlKKHhq-30" value="机器" style="whiteSpace=wrap;html=1;rotation=-90;movable=0;resizable=0;rotatable=0;deletable=0;editable=0;locked=1;connectable=0;" vertex="1" parent="1">
          <mxGeometry x="435" y="422" width="100" height="75" as="geometry" />
        </mxCell>
        <mxCell id="QgqbaAy0OsrkQTlKKHhq-31" value="桌子" style="rounded=0;whiteSpace=wrap;html=1;movable=0;resizable=0;rotatable=0;deletable=0;editable=0;locked=1;connectable=0;" vertex="1" parent="1">
          <mxGeometry x="395" y="361" width="180" height="50" as="geometry" />
        </mxCell>
        <mxCell id="QgqbaAy0OsrkQTlKKHhq-32" value="操作区&lt;div&gt;&lt;br&gt;&lt;/div&gt;" style="rounded=0;whiteSpace=wrap;html=1;movable=0;resizable=0;rotatable=0;deletable=0;editable=0;locked=1;connectable=0;" vertex="1" parent="1">
          <mxGeometry x="462.5" y="510" width="45" height="50" as="geometry" />
        </mxCell>
        <mxCell id="QgqbaAy0OsrkQTlKKHhq-22" value="" style="endArrow=classic;startArrow=classic;html=1;rounded=0;movable=1;resizable=1;rotatable=1;deletable=1;editable=1;locked=0;connectable=1;" edge="1" parent="1">
          <mxGeometry width="50" height="50" relative="1" as="geometry">
            <mxPoint x="395" y="400" as="sourcePoint" />
            <mxPoint x="575" y="400" as="targetPoint" />
          </mxGeometry>
        </mxCell>
        <mxCell id="QgqbaAy0OsrkQTlKKHhq-23" value="1.8m" style="edgeLabel;html=1;align=center;verticalAlign=middle;resizable=1;points=[];movable=1;rotatable=1;deletable=1;editable=1;locked=0;connectable=1;" vertex="1" connectable="0" parent="QgqbaAy0OsrkQTlKKHhq-22">
          <mxGeometry x="0.1746" y="-1" relative="1" as="geometry">
            <mxPoint x="-16" as="offset" />
          </mxGeometry>
        </mxCell>
        <mxCell id="QgqbaAy0OsrkQTlKKHhq-37" value="" style="endArrow=classic;startArrow=classic;html=1;rounded=0;" edge="1" parent="1">
          <mxGeometry width="50" height="50" relative="1" as="geometry">
            <mxPoint x="420" y="510" as="sourcePoint" />
            <mxPoint x="420" y="420" as="targetPoint" />
          </mxGeometry>
        </mxCell>
        <mxCell id="QgqbaAy0OsrkQTlKKHhq-38" value="1m" style="edgeLabel;html=1;align=center;verticalAlign=middle;resizable=0;points=[];" vertex="1" connectable="0" parent="QgqbaAy0OsrkQTlKKHhq-37">
          <mxGeometry x="0.5156" y="1" relative="1" as="geometry">
            <mxPoint as="offset" />
          </mxGeometry>
        </mxCell>
      </root>
    </mxGraphModel>
  </diagram>
</mxfile>
